<svg id="svg" version="1.1" xmlns="http://www.w3.org/2000/svg" xmlns:xlink="http://www.w3.org/1999/xlink" width="400" height="400" viewBox="0, 0, 400,400"><g id="svgg"><path id="path0" d="M85.200 167.600 C 85.200 194.660,85.337 216.800,85.505 216.800 C 86.137 216.800,128.669 173.746,129.170 172.600 C 129.458 171.940,129.852 171.087,130.047 170.705 C 130.697 169.426,130.441 165.363,129.581 163.333 C 128.821 161.537,86.503 118.400,85.501 118.400 C 85.336 118.400,85.200 140.540,85.200 167.600 M150.092 168.500 L 150.200 218.600 151.443 222.619 C 152.627 226.450,153.545 228.843,154.504 230.600 C 154.744 231.040,155.436 232.339,156.042 233.487 C 158.214 237.602,159.829 239.353,180.165 259.640 C 210.695 290.099,206.456 289.944,234.952 261.635 C 244.826 251.826,253.741 242.967,254.763 241.950 C 256.458 240.264,257.513 238.553,258.749 235.481 C 259.307 234.096,259.344 229.736,258.800 229.400 C 258.580 229.264,258.400 228.809,258.400 228.389 C 258.400 227.968,258.027 226.944,257.570 226.112 C 256.780 224.673,150.937 118.400,150.293 118.400 C 150.124 118.400,150.033 140.945,150.092 168.500 M332.800 157.241 C 331.150 157.411,328.180 157.739,326.200 157.970 C 324.220 158.201,320.890 158.582,318.800 158.816 C 316.710 159.051,313.650 159.402,312.000 159.597 C 310.350 159.792,307.380 160.138,305.400 160.366 C 303.420 160.593,300.180 160.969,298.200 161.200 C 296.220 161.431,293.070 161.790,291.200 161.998 C 286.386 162.532,281.156 163.135,277.200 163.610 C 275.330 163.835,272.270 164.182,270.400 164.381 C 264.839 164.974,259.617 165.566,256.000 166.014 C 254.130 166.245,251.070 166.596,249.200 166.793 C 237.162 168.061,230.252 168.840,227.893 169.194 C 226.403 169.417,224.423 169.613,223.493 169.628 C 219.540 169.694,218.346 168.306,246.810 196.738 L 273.330 223.227 305.463 191.114 C 339.705 156.893,340.054 156.506,336.400 156.872 C 336.070 156.905,334.450 157.072,332.800 157.241 M115.552 204.318 C 103.792 216.133,93.931 226.340,93.639 227.000 C 93.346 227.660,92.948 228.513,92.753 228.895 C 91.798 230.773,92.548 235.734,94.159 238.193 C 95.164 239.728,136.658 281.200,137.188 281.200 C 137.694 281.200,137.772 183.354,137.267 183.041 C 137.084 182.928,127.312 192.503,115.552 204.318 " stroke="none" fill="#f3f3f3" fill-rule="evenodd"></path><path id="path1" d="M197.000 14.400 C 196.849 14.645,193.670 14.800,188.800 14.800 C 183.930 14.800,180.751 14.955,180.600 15.200 C 180.464 15.420,179.024 15.600,177.400 15.600 C 175.776 15.600,174.336 15.780,174.200 16.000 C 174.064 16.220,172.973 16.400,171.776 16.400 C 170.579 16.400,169.600 16.580,169.600 16.800 C 169.600 17.022,168.533 17.200,167.200 17.200 C 165.867 17.200,164.800 17.378,164.800 17.600 C 164.800 17.820,164.181 18.000,163.424 18.000 C 162.667 18.000,161.936 18.180,161.800 18.400 C 161.664 18.620,160.764 18.800,159.800 18.800 C 158.836 18.800,157.936 18.980,157.800 19.200 C 157.664 19.420,156.764 19.600,155.800 19.600 C 154.836 19.600,153.936 19.780,153.800 20.000 C 153.664 20.220,153.124 20.400,152.600 20.400 C 152.076 20.400,151.536 20.580,151.400 20.800 C 151.264 21.020,150.533 21.200,149.776 21.200 C 149.019 21.200,148.400 21.380,148.400 21.600 C 148.400 21.820,147.860 22.000,147.200 22.000 C 146.540 22.000,146.000 22.180,146.000 22.400 C 146.000 22.620,145.561 22.800,145.024 22.800 C 144.487 22.800,143.936 22.980,143.800 23.200 C 143.664 23.420,143.124 23.600,142.600 23.600 C 142.076 23.600,141.536 23.780,141.400 24.000 C 141.264 24.220,140.544 24.400,139.800 24.400 C 139.056 24.400,138.336 24.580,138.200 24.800 C 138.064 25.020,137.624 25.200,137.222 25.200 C 136.820 25.200,135.976 25.469,135.346 25.798 C 134.716 26.126,133.890 26.396,133.512 26.398 C 133.134 26.399,132.183 26.760,131.400 27.200 C 130.617 27.640,129.632 28.000,129.211 28.000 C 128.791 28.000,128.336 28.180,128.200 28.400 C 128.064 28.620,127.629 28.800,127.233 28.800 C 126.448 28.800,121.483 31.213,121.267 31.700 C 121.193 31.865,120.788 32.000,120.367 32.000 C 119.945 32.000,119.600 32.180,119.600 32.400 C 119.600 32.620,119.240 32.800,118.800 32.800 C 118.360 32.800,118.000 32.980,118.000 33.200 C 118.000 33.420,117.460 33.600,116.800 33.600 C 116.140 33.600,115.600 33.780,115.600 34.000 C 115.600 34.220,115.259 34.400,114.843 34.400 C 114.426 34.400,113.991 34.646,113.876 34.946 C 113.761 35.246,111.897 36.357,109.733 37.415 C 107.570 38.473,105.488 39.603,105.107 39.925 C 104.411 40.514,102.368 41.664,99.400 43.137 C 98.520 43.574,97.364 44.397,96.830 44.966 C 96.297 45.535,95.650 46.000,95.392 46.000 C 95.135 46.000,94.598 46.360,94.200 46.800 C 93.802 47.240,93.262 47.600,93.000 47.600 C 92.738 47.600,92.198 47.960,91.800 48.400 C 91.402 48.840,90.862 49.200,90.600 49.200 C 90.338 49.200,89.798 49.560,89.400 50.000 C 89.002 50.440,88.468 50.800,88.213 50.800 C 87.958 50.800,87.232 51.340,86.600 52.000 C 85.968 52.660,85.252 53.200,85.010 53.200 C 84.768 53.200,83.683 54.100,82.600 55.200 C 81.517 56.300,80.436 57.200,80.198 57.200 C 79.961 57.200,78.972 58.010,78.000 59.000 C 77.028 59.990,76.088 60.800,75.910 60.800 C 75.462 60.800,58.001 78.184,57.996 78.635 C 57.994 78.836,57.094 79.943,55.996 81.095 C 54.898 82.248,54.000 83.334,54.000 83.510 C 54.000 83.686,53.100 84.717,52.000 85.800 C 50.900 86.883,50.000 87.968,50.000 88.210 C 50.000 88.452,49.460 89.168,48.800 89.800 C 48.140 90.432,47.600 91.158,47.600 91.413 C 47.600 91.668,47.240 92.202,46.800 92.600 C 46.360 92.998,46.000 93.538,46.000 93.800 C 46.000 94.062,45.640 94.602,45.200 95.000 C 44.760 95.398,44.400 95.938,44.400 96.200 C 44.400 96.462,44.040 97.002,43.600 97.400 C 43.160 97.798,42.800 98.338,42.800 98.600 C 42.800 98.862,42.426 99.414,41.969 99.828 C 41.512 100.242,40.792 101.339,40.370 102.266 C 39.948 103.193,39.421 104.063,39.200 104.200 C 38.979 104.337,38.439 105.237,38.000 106.200 C 37.561 107.163,37.039 108.053,36.839 108.176 C 36.639 108.300,35.611 110.156,34.555 112.300 C 33.499 114.445,32.312 116.491,31.917 116.847 C 31.523 117.203,31.200 117.788,31.200 118.147 C 31.200 118.506,31.020 118.800,30.800 118.800 C 30.580 118.800,30.400 119.340,30.400 120.000 C 30.400 120.660,30.220 121.200,30.000 121.200 C 29.780 121.200,29.600 121.545,29.600 121.967 C 29.600 122.388,29.459 122.793,29.286 122.867 C 28.760 123.090,26.000 129.003,26.000 129.906 C 26.000 130.372,25.820 130.864,25.600 131.000 C 25.380 131.136,25.200 131.591,25.200 132.011 C 25.200 132.432,24.840 133.417,24.400 134.200 C 23.960 134.983,23.600 135.883,23.600 136.200 C 23.600 136.517,23.240 137.417,22.800 138.200 C 22.360 138.983,22.000 139.968,22.000 140.389 C 22.000 140.809,21.820 141.264,21.600 141.400 C 21.380 141.536,21.200 142.256,21.200 143.000 C 21.200 143.744,21.020 144.464,20.800 144.600 C 20.580 144.736,20.400 145.287,20.400 145.824 C 20.400 146.361,20.220 146.800,20.000 146.800 C 19.780 146.800,19.600 147.340,19.600 148.000 C 19.600 148.660,19.420 149.200,19.200 149.200 C 18.980 149.200,18.800 149.740,18.800 150.400 C 18.800 151.060,18.620 151.600,18.400 151.600 C 18.180 151.600,18.000 152.219,18.000 152.976 C 18.000 153.733,17.820 154.464,17.600 154.600 C 17.380 154.736,17.200 155.276,17.200 155.800 C 17.200 156.324,17.020 156.864,16.800 157.000 C 16.580 157.136,16.400 158.036,16.400 159.000 C 16.400 159.964,16.220 160.864,16.000 161.000 C 15.780 161.136,15.600 162.036,15.600 163.000 C 15.600 163.964,15.420 164.864,15.200 165.000 C 14.980 165.136,14.800 165.867,14.800 166.624 C 14.800 167.381,14.620 168.000,14.400 168.000 C 14.178 168.000,14.000 169.067,14.000 170.400 C 14.000 171.733,13.822 172.800,13.600 172.800 C 13.380 172.800,13.200 173.779,13.200 174.976 C 13.200 176.173,13.020 177.264,12.800 177.400 C 12.580 177.536,12.400 178.976,12.400 180.600 C 12.400 182.224,12.220 183.664,12.000 183.800 C 11.755 183.951,11.600 187.130,11.600 192.000 C 11.600 196.870,11.445 200.049,11.200 200.200 C 10.678 200.522,10.678 206.678,11.200 207.000 C 11.445 207.151,11.600 210.330,11.600 215.200 C 11.600 220.070,11.755 223.249,12.000 223.400 C 12.220 223.536,12.400 224.987,12.400 226.624 C 12.400 228.341,12.569 229.600,12.800 229.600 C 13.020 229.600,13.200 230.579,13.200 231.776 C 13.200 232.973,13.380 234.064,13.600 234.200 C 13.820 234.336,14.000 235.236,14.000 236.200 C 14.000 237.164,14.180 238.064,14.400 238.200 C 14.620 238.336,14.800 239.236,14.800 240.200 C 14.800 241.164,14.980 242.064,15.200 242.200 C 15.420 242.336,15.600 243.056,15.600 243.800 C 15.600 244.544,15.780 245.264,16.000 245.400 C 16.220 245.536,16.400 246.447,16.400 247.424 C 16.400 248.401,16.580 249.200,16.800 249.200 C 17.020 249.200,17.200 249.819,17.200 250.576 C 17.200 251.333,17.380 252.064,17.600 252.200 C 17.820 252.336,18.000 253.056,18.000 253.800 C 18.000 254.544,18.180 255.264,18.400 255.400 C 18.620 255.536,18.800 256.076,18.800 256.600 C 18.800 257.124,18.980 257.664,19.200 257.800 C 19.420 257.936,19.600 258.476,19.600 259.000 C 19.600 259.524,19.780 260.064,20.000 260.200 C 20.220 260.336,20.400 260.876,20.400 261.400 C 20.400 261.924,20.580 262.464,20.800 262.600 C 21.020 262.736,21.200 263.371,21.200 264.011 C 21.200 264.652,21.560 265.817,22.000 266.600 C 22.440 267.383,22.800 268.368,22.800 268.789 C 22.800 269.209,22.980 269.664,23.200 269.800 C 23.420 269.936,23.600 270.487,23.600 271.024 C 23.600 271.561,23.780 272.000,24.000 272.000 C 24.220 272.000,24.400 272.360,24.400 272.800 C 24.400 273.240,24.536 273.600,24.702 273.600 C 25.100 273.600,25.866 275.445,26.196 277.200 C 26.466 278.637,35.424 297.044,36.037 297.423 C 36.225 297.539,36.693 298.301,37.076 299.117 C 37.460 299.933,38.095 300.949,38.487 301.375 C 38.879 301.802,39.200 302.387,39.200 302.675 C 39.200 302.964,39.380 303.200,39.600 303.200 C 39.820 303.200,40.000 303.520,40.000 303.912 C 40.000 304.303,40.360 304.883,40.800 305.200 C 41.240 305.517,41.600 306.097,41.600 306.488 C 41.600 306.880,41.772 307.200,41.981 307.200 C 42.191 307.200,42.661 307.830,43.027 308.600 C 43.392 309.370,43.851 310.000,44.046 310.000 C 44.241 310.000,44.400 310.320,44.400 310.712 C 44.400 311.103,44.760 311.683,45.200 312.000 C 45.640 312.317,46.000 312.821,46.000 313.120 C 46.000 313.418,46.720 314.354,47.600 315.200 C 48.480 316.046,49.200 316.898,49.200 317.094 C 49.200 317.290,49.740 317.968,50.400 318.600 C 51.060 319.232,51.600 319.952,51.600 320.200 C 51.600 320.448,52.140 321.168,52.800 321.800 C 53.460 322.432,54.000 323.146,54.000 323.386 C 54.000 323.627,55.170 324.983,56.600 326.400 C 58.030 327.817,59.200 329.164,59.200 329.393 C 59.200 329.930,72.878 343.600,73.415 343.600 C 73.639 343.600,75.072 344.860,76.600 346.400 C 78.128 347.940,79.572 349.200,79.808 349.200 C 80.044 349.200,80.941 349.920,81.800 350.800 C 82.659 351.680,83.559 352.400,83.800 352.400 C 84.041 352.400,84.941 353.120,85.800 354.000 C 86.659 354.880,87.574 355.600,87.832 355.600 C 88.091 355.600,88.542 355.889,88.835 356.242 C 89.127 356.595,89.735 357.052,90.184 357.259 C 91.918 358.057,92.949 358.770,93.804 359.766 C 94.293 360.335,94.987 360.800,95.347 360.800 C 95.706 360.800,96.000 360.980,96.000 361.200 C 96.000 361.420,96.236 361.600,96.525 361.600 C 96.813 361.600,97.436 361.960,97.908 362.400 C 98.380 362.840,99.004 363.200,99.295 363.200 C 99.586 363.200,100.083 363.560,100.400 364.000 C 100.717 364.440,101.257 364.800,101.600 364.800 C 101.943 364.800,102.483 365.160,102.800 365.600 C 103.117 366.040,103.765 366.400,104.239 366.400 C 104.714 366.400,105.334 366.679,105.616 367.020 C 105.899 367.361,106.900 367.990,107.841 368.419 C 108.782 368.847,109.655 369.366,109.782 369.572 C 109.909 369.777,111.945 370.871,114.307 372.003 C 116.668 373.135,119.292 374.407,120.138 374.830 C 120.984 375.254,121.910 375.600,122.197 375.600 C 122.484 375.600,123.745 376.140,125.000 376.800 C 126.255 377.460,127.623 378.000,128.041 378.000 C 128.458 378.000,128.800 378.180,128.800 378.400 C 128.800 378.620,129.160 378.800,129.600 378.800 C 130.040 378.800,130.400 378.980,130.400 379.200 C 130.400 379.420,130.940 379.600,131.600 379.600 C 132.260 379.600,132.800 379.780,132.800 380.000 C 132.800 380.220,133.239 380.400,133.776 380.400 C 134.313 380.400,134.864 380.580,135.000 380.800 C 135.136 381.020,135.591 381.200,136.011 381.200 C 136.432 381.200,137.417 381.560,138.200 382.000 C 138.983 382.440,139.968 382.800,140.389 382.800 C 140.809 382.800,141.264 382.980,141.400 383.200 C 141.536 383.420,142.076 383.600,142.600 383.600 C 143.124 383.600,143.664 383.780,143.800 384.000 C 143.936 384.220,144.656 384.400,145.400 384.400 C 146.144 384.400,146.864 384.580,147.000 384.800 C 147.136 385.020,147.856 385.200,148.600 385.200 C 149.344 385.200,150.064 385.380,150.200 385.600 C 150.336 385.820,150.887 386.000,151.424 386.000 C 151.961 386.000,152.400 386.180,152.400 386.400 C 152.400 386.620,153.120 386.800,154.000 386.800 C 154.880 386.800,155.600 386.980,155.600 387.200 C 155.600 387.420,156.219 387.600,156.976 387.600 C 157.733 387.600,158.464 387.780,158.600 388.000 C 158.736 388.220,159.636 388.400,160.600 388.400 C 161.564 388.400,162.464 388.580,162.600 388.800 C 162.736 389.020,163.636 389.200,164.600 389.200 C 165.564 389.200,166.464 389.380,166.600 389.600 C 166.736 389.820,167.971 390.000,169.344 390.000 C 170.717 390.000,172.011 390.170,172.220 390.378 C 172.429 390.586,175.171 390.883,178.314 391.039 C 181.456 391.194,184.122 391.473,184.237 391.660 C 184.511 392.103,215.488 392.105,215.762 391.662 C 215.876 391.476,218.719 391.200,222.079 391.049 C 225.438 390.897,228.361 390.599,228.573 390.387 C 228.786 390.174,230.083 390.000,231.456 390.000 C 232.829 390.000,234.064 389.820,234.200 389.600 C 234.336 389.380,235.236 389.200,236.200 389.200 C 237.164 389.200,238.064 389.020,238.200 388.800 C 238.336 388.580,239.056 388.400,239.800 388.400 C 240.544 388.400,241.264 388.220,241.400 388.000 C 241.536 387.780,242.447 387.600,243.424 387.600 C 244.401 387.600,245.200 387.420,245.200 387.200 C 245.200 386.980,245.740 386.800,246.400 386.800 C 247.060 386.800,247.600 386.620,247.600 386.400 C 247.600 386.180,248.219 386.000,248.976 386.000 C 249.733 386.000,250.464 385.820,250.600 385.600 C 250.736 385.380,251.456 385.200,252.200 385.200 C 252.944 385.200,253.664 385.020,253.800 384.800 C 253.936 384.580,254.476 384.400,255.000 384.400 C 255.524 384.400,256.064 384.220,256.200 384.000 C 256.336 383.780,256.876 383.600,257.400 383.600 C 257.924 383.600,258.464 383.420,258.600 383.200 C 258.736 382.980,259.276 382.800,259.800 382.800 C 260.324 382.800,260.864 382.620,261.000 382.400 C 261.136 382.180,261.676 382.000,262.200 382.000 C 262.724 382.000,263.264 381.820,263.400 381.600 C 263.536 381.380,264.087 381.200,264.624 381.200 C 265.161 381.200,265.600 381.020,265.600 380.800 C 265.600 380.580,266.140 380.400,266.800 380.400 C 267.460 380.400,268.000 380.220,268.000 380.000 C 268.000 379.780,268.360 379.600,268.800 379.600 C 269.240 379.600,269.600 379.420,269.600 379.200 C 269.600 378.980,270.125 378.800,270.767 378.800 C 271.408 378.800,271.993 378.665,272.067 378.500 C 272.250 378.088,275.557 376.400,276.182 376.400 C 276.460 376.400,277.748 375.876,279.044 375.235 C 280.340 374.595,284.040 372.786,287.267 371.216 C 290.494 369.646,293.320 368.137,293.548 367.863 C 293.775 367.589,294.600 367.114,295.381 366.808 C 296.161 366.501,296.800 366.104,296.800 365.925 C 296.800 365.746,297.120 365.600,297.512 365.600 C 297.903 365.600,298.483 365.240,298.800 364.800 C 299.117 364.360,299.697 364.000,300.088 364.000 C 300.480 364.000,300.800 363.820,300.800 363.600 C 300.800 363.380,301.120 363.200,301.512 363.200 C 301.903 363.200,302.483 362.840,302.800 362.400 C 303.117 361.960,303.657 361.600,304.000 361.600 C 304.343 361.600,304.883 361.240,305.200 360.800 C 305.517 360.360,305.973 360.000,306.213 360.000 C 306.454 360.000,307.159 359.469,307.781 358.819 C 308.403 358.170,309.398 357.532,309.992 357.402 C 310.586 357.271,311.768 356.452,312.617 355.582 C 313.467 354.712,314.362 354.000,314.606 354.000 C 314.851 354.000,315.568 353.460,316.200 352.800 C 316.832 352.140,317.548 351.600,317.790 351.600 C 318.032 351.600,319.117 350.700,320.200 349.600 C 321.283 348.500,322.361 347.600,322.594 347.600 C 322.828 347.600,324.450 346.160,326.200 344.400 C 327.950 342.640,329.610 341.200,329.891 341.200 C 330.171 341.200,330.400 340.961,330.400 340.670 C 330.400 340.089,332.040 338.400,332.604 338.400 C 333.128 338.400,335.200 336.321,335.200 335.795 C 335.200 335.241,336.738 333.812,337.700 333.472 C 338.085 333.336,338.400 332.990,338.400 332.703 C 338.400 332.415,339.750 330.839,341.400 329.200 C 343.050 327.561,344.400 326.029,344.400 325.795 C 344.400 325.561,345.300 324.483,346.400 323.400 C 347.500 322.317,348.400 321.232,348.400 320.990 C 348.400 320.748,348.940 320.032,349.600 319.400 C 350.260 318.768,350.800 318.049,350.800 317.804 C 350.800 317.558,351.442 316.737,352.226 315.978 C 353.011 315.220,353.951 313.970,354.316 313.200 C 354.682 312.430,355.416 311.308,355.949 310.708 C 356.869 309.671,357.615 308.537,358.257 307.200 C 358.415 306.870,358.872 306.309,359.272 305.953 C 359.673 305.597,360.000 305.012,360.000 304.653 C 360.000 304.294,360.180 304.000,360.400 304.000 C 360.620 304.000,360.800 303.680,360.800 303.288 C 360.800 302.897,361.160 302.317,361.600 302.000 C 362.040 301.683,362.400 301.103,362.400 300.712 C 362.400 300.320,362.536 300.000,362.702 300.000 C 362.869 300.000,363.255 299.415,363.561 298.700 C 363.866 297.985,364.377 297.097,364.696 296.727 C 365.537 295.750,373.600 279.527,373.602 278.808 C 373.603 278.473,374.053 277.314,374.602 276.232 C 375.151 275.150,375.600 273.935,375.600 273.532 C 375.600 273.129,375.780 272.800,376.000 272.800 C 376.220 272.800,376.400 272.440,376.400 272.000 C 376.400 271.560,376.580 271.200,376.800 271.200 C 377.020 271.200,377.200 270.761,377.200 270.224 C 377.200 269.687,377.380 269.136,377.600 269.000 C 377.820 268.864,378.000 268.324,378.000 267.800 C 378.000 267.276,378.180 266.736,378.400 266.600 C 378.620 266.464,378.800 265.924,378.800 265.400 C 378.800 264.876,378.980 264.336,379.200 264.200 C 379.420 264.064,379.600 263.524,379.600 263.000 C 379.600 262.476,379.780 261.936,380.000 261.800 C 380.220 261.664,380.400 261.124,380.400 260.600 C 380.400 260.076,380.580 259.536,380.800 259.400 C 381.020 259.264,381.200 258.724,381.200 258.200 C 381.200 257.676,381.380 257.136,381.600 257.000 C 381.820 256.864,382.000 256.144,382.000 255.400 C 382.000 254.656,382.180 253.936,382.400 253.800 C 382.620 253.664,382.800 252.933,382.800 252.176 C 382.800 251.419,382.980 250.800,383.200 250.800 C 383.420 250.800,383.600 250.260,383.600 249.600 C 383.600 248.940,383.780 248.400,384.000 248.400 C 384.220 248.400,384.400 247.601,384.400 246.624 C 384.400 245.647,384.580 244.736,384.800 244.600 C 385.020 244.464,385.200 243.744,385.200 243.000 C 385.200 242.256,385.380 241.536,385.600 241.400 C 385.820 241.264,386.000 240.364,386.000 239.400 C 386.000 238.436,386.180 237.536,386.400 237.400 C 386.620 237.264,386.800 236.004,386.800 234.600 C 386.800 233.196,386.980 231.936,387.200 231.800 C 387.420 231.664,387.600 230.393,387.600 228.976 C 387.600 227.525,387.775 226.400,388.000 226.400 C 388.238 226.400,388.400 224.875,388.400 222.624 C 388.400 220.537,388.579 218.737,388.800 218.600 C 389.055 218.442,389.200 212.870,389.200 203.200 C 389.200 193.530,389.055 187.958,388.800 187.800 C 388.580 187.664,388.400 186.044,388.400 184.200 C 388.400 182.356,388.220 180.736,388.000 180.600 C 387.780 180.464,387.600 179.204,387.600 177.800 C 387.600 176.396,387.420 175.136,387.200 175.000 C 386.980 174.864,386.800 173.593,386.800 172.176 C 386.800 170.725,386.625 169.600,386.400 169.600 C 386.180 169.600,386.000 168.801,386.000 167.824 C 386.000 166.847,385.820 165.936,385.600 165.800 C 385.380 165.664,385.200 164.764,385.200 163.800 C 385.200 162.836,385.020 161.936,384.800 161.800 C 384.580 161.664,384.400 160.944,384.400 160.200 C 384.400 159.456,384.220 158.736,384.000 158.600 C 383.780 158.464,383.600 157.744,383.600 157.000 C 383.600 156.256,383.420 155.536,383.200 155.400 C 382.980 155.264,382.800 154.724,382.800 154.200 C 382.800 153.676,382.620 153.136,382.400 153.000 C 382.180 152.864,382.000 152.133,382.000 151.376 C 382.000 150.619,381.820 150.000,381.600 150.000 C 381.380 150.000,381.200 149.280,381.200 148.400 C 381.200 147.520,381.020 146.800,380.800 146.800 C 380.580 146.800,380.400 146.361,380.400 145.824 C 380.400 145.287,380.220 144.736,380.000 144.600 C 379.780 144.464,379.600 144.009,379.600 143.589 C 379.600 143.168,379.240 142.183,378.800 141.400 C 378.360 140.617,378.000 139.632,378.000 139.211 C 378.000 138.791,377.820 138.336,377.600 138.200 C 377.380 138.064,377.200 137.524,377.200 137.000 C 377.200 136.476,377.020 135.936,376.800 135.800 C 376.580 135.664,376.400 135.209,376.400 134.789 C 376.400 134.368,376.040 133.383,375.600 132.600 C 375.160 131.817,374.800 130.939,374.800 130.649 C 374.800 130.158,374.036 128.305,373.174 126.705 C 372.968 126.323,372.800 125.648,372.800 125.205 C 372.800 124.762,372.620 124.400,372.400 124.400 C 372.180 124.400,372.000 124.040,372.000 123.600 C 372.000 123.160,371.820 122.800,371.600 122.800 C 371.380 122.800,371.200 122.440,371.200 122.000 C 371.200 121.560,371.020 121.200,370.800 121.200 C 370.580 121.200,370.400 120.840,370.400 120.400 C 370.400 119.960,370.220 119.600,370.000 119.600 C 369.780 119.600,369.600 119.255,369.600 118.833 C 369.600 118.412,369.458 118.007,369.285 117.933 C 369.112 117.860,368.471 116.768,367.860 115.508 C 367.249 114.247,366.580 113.111,366.373 112.984 C 366.167 112.856,365.647 111.982,365.219 111.041 C 364.790 110.100,364.161 109.099,363.820 108.816 C 363.479 108.534,363.200 107.902,363.200 107.413 C 363.200 106.924,362.840 106.198,362.400 105.800 C 361.960 105.402,361.600 104.862,361.600 104.600 C 361.600 104.338,361.240 103.798,360.800 103.400 C 360.360 103.002,360.000 102.456,360.000 102.187 C 360.000 101.918,359.721 101.466,359.380 101.184 C 359.039 100.901,358.423 99.929,358.011 99.025 C 357.599 98.120,356.888 97.042,356.431 96.628 C 355.974 96.214,355.600 95.662,355.600 95.400 C 355.600 95.138,355.240 94.598,354.800 94.200 C 354.360 93.802,354.000 93.262,354.000 93.000 C 354.000 92.738,353.640 92.198,353.200 91.800 C 352.760 91.402,352.400 90.870,352.400 90.619 C 352.400 90.368,351.680 89.459,350.800 88.600 C 349.920 87.741,349.200 86.880,349.200 86.687 C 349.200 86.495,348.480 85.646,347.600 84.800 C 346.720 83.954,346.000 83.071,346.000 82.837 C 346.000 82.603,344.832 81.194,343.404 79.706 C 341.976 78.218,340.806 76.846,340.804 76.658 C 340.799 76.239,326.891 62.400,326.474 62.400 C 326.311 62.400,325.017 61.230,323.600 59.800 C 322.183 58.370,320.838 57.199,320.612 57.198 C 320.385 57.197,319.625 56.657,318.922 55.998 C 318.219 55.339,317.487 54.800,317.297 54.800 C 317.106 54.800,316.432 54.260,315.800 53.600 C 315.168 52.940,314.451 52.400,314.206 52.400 C 313.962 52.400,313.059 51.680,312.200 50.800 C 311.341 49.920,310.432 49.200,310.181 49.200 C 309.930 49.200,309.398 48.840,309.000 48.400 C 308.602 47.960,308.062 47.600,307.800 47.600 C 307.538 47.600,306.998 47.240,306.600 46.800 C 306.202 46.360,305.662 46.000,305.400 46.000 C 305.138 46.000,304.598 45.640,304.200 45.200 C 303.802 44.760,303.262 44.400,303.000 44.400 C 302.738 44.400,302.207 44.050,301.821 43.623 C 301.434 43.195,300.608 42.734,299.986 42.597 C 299.364 42.460,298.633 42.081,298.362 41.754 C 298.091 41.428,297.100 40.810,296.159 40.381 C 295.218 39.953,294.347 39.439,294.224 39.239 C 294.100 39.039,292.244 38.009,290.100 36.951 C 287.955 35.892,286.140 34.885,286.067 34.713 C 285.993 34.541,285.588 34.400,285.167 34.400 C 284.745 34.400,284.400 34.220,284.400 34.000 C 284.400 33.780,284.040 33.600,283.600 33.600 C 283.160 33.600,282.800 33.420,282.800 33.200 C 282.800 32.980,282.440 32.800,282.000 32.800 C 281.560 32.800,281.200 32.620,281.200 32.400 C 281.200 32.180,280.840 32.000,280.400 32.000 C 279.960 32.000,279.600 31.820,279.600 31.600 C 279.600 31.380,279.240 31.200,278.800 31.200 C 278.360 31.200,277.999 31.065,277.997 30.900 C 277.993 30.499,276.019 29.600,275.144 29.600 C 274.761 29.600,274.336 29.420,274.200 29.200 C 274.064 28.980,273.622 28.800,273.217 28.800 C 272.812 28.800,271.490 28.279,270.279 27.642 C 269.068 27.005,267.307 26.353,266.366 26.194 C 265.426 26.035,264.053 25.567,263.316 25.153 C 262.579 24.739,261.452 24.400,260.811 24.400 C 260.171 24.400,259.536 24.220,259.400 24.000 C 259.264 23.780,258.724 23.600,258.200 23.600 C 257.676 23.600,257.136 23.420,257.000 23.200 C 256.864 22.980,256.313 22.800,255.776 22.800 C 255.239 22.800,254.800 22.620,254.800 22.400 C 254.800 22.180,254.260 22.000,253.600 22.000 C 252.940 22.000,252.400 21.820,252.400 21.600 C 252.400 21.380,251.781 21.200,251.024 21.200 C 250.267 21.200,249.536 21.020,249.400 20.800 C 249.264 20.580,248.544 20.400,247.800 20.400 C 247.056 20.400,246.336 20.220,246.200 20.000 C 246.064 19.780,245.164 19.600,244.200 19.600 C 243.236 19.600,242.336 19.420,242.200 19.200 C 242.064 18.980,241.344 18.800,240.600 18.800 C 239.856 18.800,239.136 18.620,239.000 18.400 C 238.864 18.180,237.953 18.000,236.976 18.000 C 235.999 18.000,235.200 17.820,235.200 17.600 C 235.200 17.380,234.300 17.200,233.200 17.200 C 232.100 17.200,231.200 17.020,231.200 16.800 C 231.200 16.580,230.221 16.400,229.024 16.400 C 227.827 16.400,226.736 16.220,226.600 16.000 C 226.464 15.780,225.024 15.600,223.400 15.600 C 221.776 15.600,220.336 15.420,220.200 15.200 C 220.048 14.954,216.737 14.800,211.600 14.800 C 206.463 14.800,203.152 14.646,203.000 14.400 C 202.864 14.180,201.514 14.000,200.000 14.000 C 198.486 14.000,197.136 14.180,197.000 14.400 M107.341 138.998 C 131.555 163.244,130.960 162.523,130.937 167.600 C 130.913 172.769,131.534 172.016,107.277 196.299 C 87.279 216.320,85.434 218.061,84.939 217.384 C 84.362 216.596,84.093 118.040,84.667 117.467 C 84.813 117.320,85.077 117.200,85.253 117.200 C 85.429 117.200,95.368 127.009,107.341 138.998 M204.067 170.715 C 263.839 230.560,259.632 225.924,259.666 232.000 C 259.698 238.044,260.464 237.080,237.227 260.264 C 213.872 283.567,214.341 283.191,208.511 283.197 C 202.582 283.202,203.605 284.018,180.092 260.533 C 156.037 236.505,154.649 234.767,151.407 224.596 C 149.406 218.320,149.462 219.860,149.321 167.100 C 149.194 119.384,149.219 117.200,149.903 117.200 C 150.320 117.200,172.891 139.500,204.067 170.715 M338.453 156.956 C 338.748 157.605,338.760 158.143,338.488 158.629 C 337.713 160.013,273.835 223.600,273.221 223.598 C 272.319 223.595,218.962 170.074,219.423 169.635 C 219.631 169.438,221.600 169.085,223.800 168.850 C 226.000 168.615,231.040 168.046,235.000 167.586 C 238.960 167.127,243.820 166.587,245.800 166.386 C 247.780 166.185,250.930 165.841,252.800 165.621 C 255.995 165.246,259.433 164.849,267.000 163.982 C 268.760 163.781,271.820 163.428,273.800 163.198 C 275.780 162.968,278.930 162.609,280.800 162.400 C 282.670 162.191,285.820 161.831,287.800 161.600 C 291.802 161.133,296.380 160.615,301.800 160.017 C 303.780 159.799,306.975 159.436,308.900 159.210 C 315.883 158.392,319.458 157.972,322.400 157.624 C 324.050 157.428,327.455 157.074,329.966 156.835 C 332.477 156.596,334.622 156.311,334.733 156.201 C 335.411 155.523,338.043 156.058,338.453 156.956 M138.400 232.224 C 138.400 279.747,138.363 282.400,137.700 282.393 C 136.585 282.382,94.118 239.639,92.920 237.323 C 91.408 234.398,91.442 230.013,92.999 227.035 C 94.365 224.425,137.198 181.304,137.958 181.774 C 138.277 181.971,138.400 196.033,138.400 232.224 " stroke="none" fill="#3c4343" fill-rule="evenodd"></path><path id="path2" d="M84.994 167.600 C 84.994 194.770,85.042 205.885,85.100 192.300 C 85.158 178.715,85.158 156.485,85.100 142.900 C 85.042 129.315,84.994 140.430,84.994 167.600 M130.520 167.600 C 130.520 168.810,130.595 169.305,130.687 168.700 C 130.778 168.095,130.778 167.105,130.687 166.500 C 130.595 165.895,130.520 166.390,130.520 167.600 M225.800 176.400 C 227.771 178.380,229.473 180.000,229.583 180.000 C 229.693 180.000,228.171 178.380,226.200 176.400 C 224.229 174.420,222.527 172.800,222.417 172.800 C 222.307 172.800,223.829 174.420,225.800 176.400 M242.200 192.800 C 244.171 194.780,245.873 196.400,245.983 196.400 C 246.093 196.400,244.571 194.780,242.600 192.800 C 240.629 190.820,238.927 189.200,238.817 189.200 C 238.707 189.200,240.229 190.820,242.200 192.800 M259.000 209.600 C 260.750 211.360,262.271 212.800,262.381 212.800 C 262.491 212.800,261.150 211.360,259.400 209.600 C 257.650 207.840,256.129 206.400,256.019 206.400 C 255.909 206.400,257.250 207.840,259.000 209.600 M162.200 242.400 C 163.506 243.720,164.665 244.800,164.775 244.800 C 164.885 244.800,163.906 243.720,162.600 242.400 C 161.294 241.080,160.135 240.000,160.025 240.000 C 159.915 240.000,160.894 241.080,162.200 242.400 M253.787 243.300 L 251.400 245.800 253.900 243.413 C 255.275 242.099,256.400 240.974,256.400 240.913 C 256.400 240.617,256.005 240.978,253.787 243.300 M166.000 246.125 C 166.000 246.194,166.585 246.779,167.300 247.425 L 168.600 248.600 167.425 247.300 C 166.330 246.088,166.000 245.816,166.000 246.125 M177.400 257.600 C 179.150 259.360,180.671 260.800,180.781 260.800 C 180.891 260.800,179.550 259.360,177.800 257.600 C 176.050 255.840,174.529 254.400,174.419 254.400 C 174.309 254.400,175.650 255.840,177.400 257.600 M194.200 274.400 C 195.728 275.940,197.069 277.200,197.179 277.200 C 197.289 277.200,196.128 275.940,194.600 274.400 C 193.072 272.860,191.731 271.600,191.621 271.600 C 191.511 271.600,192.672 272.860,194.200 274.400 M217.781 278.900 L 216.200 280.600 217.900 279.019 C 218.835 278.149,219.600 277.384,219.600 277.319 C 219.600 277.016,219.252 277.319,217.781 278.900 " stroke="none" fill="#9c9c9c" fill-rule="evenodd"></path><path id="path3" d="M85.249 118.100 C 85.350 118.155,95.235 127.920,107.216 139.800 L 129.000 161.400 107.401 139.700 C 95.522 127.765,85.637 118.000,85.435 118.000 C 85.232 118.000,85.149 118.045,85.249 118.100 M149.698 166.700 L 149.797 215.400 149.900 166.900 C 149.957 140.225,150.139 118.400,150.305 118.400 C 150.471 118.400,174.680 142.478,204.104 171.906 C 233.527 201.335,257.600 225.322,257.600 225.210 C 257.600 224.750,150.563 118.000,150.102 118.000 C 149.702 118.000,149.620 127.849,149.698 166.700 M333.800 156.825 C 332.444 157.103,332.566 157.129,334.603 156.993 C 337.341 156.810,338.251 157.167,337.835 158.260 C 337.605 158.862,337.649 158.905,338.067 158.489 C 339.472 157.094,337.063 156.154,333.800 156.825 M327.400 157.600 L 326.200 157.905 327.400 157.925 C 328.060 157.935,328.960 157.789,329.400 157.600 L 330.200 157.256 329.400 157.275 C 328.960 157.286,328.060 157.432,327.400 157.600 M319.800 158.400 L 317.800 158.674 319.800 158.709 C 320.900 158.728,322.160 158.589,322.600 158.400 L 323.400 158.056 322.600 158.091 C 322.160 158.110,320.900 158.249,319.800 158.400 M312.800 159.200 L 311.000 159.480 312.800 159.512 C 313.790 159.529,314.960 159.389,315.400 159.200 L 316.200 158.856 315.400 158.888 C 314.960 158.906,313.790 159.046,312.800 159.200 M305.365 191.200 C 287.761 208.800,273.458 223.200,273.580 223.200 C 273.702 223.200,288.201 208.800,305.800 191.200 C 323.399 173.600,337.702 159.200,337.584 159.200 C 337.467 159.200,322.968 173.600,305.365 191.200 M306.000 160.000 L 304.200 160.280 306.000 160.312 C 306.990 160.329,308.160 160.189,308.600 160.000 L 309.400 159.656 308.600 159.688 C 308.160 159.706,306.990 159.846,306.000 160.000 M298.600 160.800 L 296.600 161.074 298.600 161.097 C 299.700 161.110,301.050 160.976,301.600 160.800 L 302.600 160.480 301.600 160.503 C 301.050 160.515,299.700 160.649,298.600 160.800 M291.800 161.600 L 289.800 161.874 291.800 161.897 C 292.900 161.910,294.250 161.776,294.800 161.600 L 295.800 161.280 294.800 161.303 C 294.250 161.315,292.900 161.449,291.800 161.600 M284.400 162.400 L 281.800 162.662 284.200 162.691 C 285.520 162.707,287.050 162.576,287.600 162.400 C 288.801 162.015,288.217 162.015,284.400 162.400 M277.400 163.200 L 275.000 163.466 277.200 163.485 C 278.410 163.496,279.940 163.368,280.600 163.200 C 282.138 162.809,280.937 162.809,277.400 163.200 M270.400 164.000 L 268.200 164.270 270.600 164.295 C 271.920 164.309,273.450 164.176,274.000 164.000 C 275.293 163.586,273.779 163.586,270.400 164.000 M263.200 164.800 C 261.001 165.070,261.001 165.070,262.800 165.105 C 263.790 165.125,265.410 164.997,266.400 164.820 C 268.746 164.403,266.553 164.389,263.200 164.800 M258.900 165.476 C 259.285 165.576,259.915 165.576,260.300 165.476 C 260.685 165.375,260.370 165.293,259.600 165.293 C 258.830 165.293,258.515 165.375,258.900 165.476 M253.000 166.006 C 252.297 166.188,253.042 166.228,254.800 166.103 C 256.450 165.985,257.875 165.824,257.967 165.744 C 258.275 165.478,254.213 165.691,253.000 166.006 M248.500 166.687 C 249.105 166.778,250.095 166.778,250.700 166.687 C 251.305 166.595,250.810 166.520,249.600 166.520 C 248.390 166.520,247.895 166.595,248.500 166.687 M244.900 167.076 C 245.285 167.176,245.915 167.176,246.300 167.076 C 246.685 166.975,246.370 166.893,245.600 166.893 C 244.830 166.893,244.515 166.975,244.900 167.076 M239.000 167.622 C 237.989 167.816,238.578 167.851,240.600 167.716 C 242.360 167.599,243.875 167.435,243.967 167.351 C 244.244 167.100,240.711 167.292,239.000 167.622 M232.000 168.417 C 231.135 168.609,231.746 168.646,233.600 168.512 C 235.250 168.393,236.675 168.229,236.767 168.148 C 237.058 167.890,233.457 168.093,232.000 168.417 M224.600 169.200 L 223.400 169.505 224.800 169.505 C 225.570 169.505,226.740 169.368,227.400 169.200 L 228.600 168.895 227.200 168.895 C 226.430 168.895,225.260 169.032,224.600 169.200 M220.000 169.951 C 220.000 170.144,220.315 170.549,220.700 170.851 C 221.327 171.343,221.345 171.330,220.879 170.733 C 220.437 170.169,220.468 170.038,221.079 169.880 C 221.648 169.732,221.610 169.683,220.900 169.646 C 220.405 169.621,220.000 169.758,220.000 169.951 M106.795 195.700 C 95.022 207.525,85.483 217.200,85.596 217.200 C 85.926 217.200,128.585 174.444,128.383 174.316 C 128.282 174.252,118.568 183.875,106.795 195.700 M231.200 181.290 C 231.200 181.656,237.248 187.686,237.431 187.502 C 237.511 187.423,236.141 185.931,234.388 184.188 C 232.635 182.445,231.200 181.141,231.200 181.290 M116.199 203.300 L 95.400 224.200 116.217 203.484 C 127.667 192.090,137.162 182.895,137.317 183.051 C 137.868 183.602,137.653 281.115,137.100 281.312 C 136.825 281.410,136.738 281.638,136.907 281.819 C 137.075 281.999,137.391 281.969,137.608 281.752 C 138.157 281.203,137.949 182.716,137.399 182.533 C 137.178 182.459,127.638 191.804,116.199 203.300 M248.024 198.185 C 248.891 199.368,253.666 204.067,253.832 203.902 C 253.911 203.822,252.507 202.327,250.712 200.579 C 248.917 198.830,247.707 197.753,248.024 198.185 M264.451 214.672 C 265.371 215.798,269.779 220.163,270.615 220.776 C 271.047 221.092,269.784 219.697,267.808 217.676 C 264.470 214.259,263.147 213.075,264.451 214.672 M94.529 225.300 C 94.084 225.795,93.576 226.470,93.401 226.800 C 93.063 227.437,93.155 227.350,94.776 225.500 C 95.306 224.895,95.649 224.400,95.539 224.400 C 95.429 224.400,94.975 224.805,94.529 225.300 M258.428 228.276 C 258.413 228.758,258.580 229.264,258.800 229.400 C 259.273 229.692,259.273 229.301,258.800 228.200 C 258.469 227.429,258.455 227.431,258.428 228.276 M92.101 232.200 C 92.105 233.080,92.187 233.393,92.283 232.895 C 92.379 232.398,92.375 231.678,92.275 231.295 C 92.175 230.913,92.096 231.320,92.101 232.200 M257.434 238.500 L 256.808 239.800 257.604 238.856 C 258.042 238.336,258.400 237.751,258.400 237.556 C 258.400 236.872,258.054 237.210,257.434 238.500 M236.377 260.214 C 227.260 269.351,219.716 276.956,219.614 277.114 C 219.279 277.628,251.374 245.831,252.330 244.700 C 254.549 242.077,252.023 244.534,236.377 260.214 M171.000 250.800 C 173.192 253.000,175.075 254.800,175.185 254.800 C 175.295 254.800,173.592 253.000,171.400 250.800 C 169.208 248.600,167.325 246.800,167.215 246.800 C 167.105 246.800,168.808 248.600,171.000 250.800 M177.600 257.400 C 178.346 258.170,179.047 258.800,179.157 258.800 C 179.267 258.800,178.746 258.170,178.000 257.400 C 177.254 256.630,176.553 256.000,176.443 256.000 C 176.333 256.000,176.854 256.630,177.600 257.400 M185.800 265.600 C 188.874 268.680,191.479 271.200,191.589 271.200 C 191.699 271.200,189.274 268.680,186.200 265.600 C 183.126 262.520,180.521 260.000,180.411 260.000 C 180.301 260.000,182.726 262.520,185.800 265.600 M194.383 274.100 C 196.041 275.866,196.400 276.184,196.400 275.883 C 196.400 275.819,195.545 274.964,194.500 273.983 L 192.600 272.200 194.383 274.100 M199.000 278.745 C 199.880 279.690,200.960 280.653,201.400 280.886 C 201.840 281.118,202.110 281.227,202.000 281.127 C 198.103 277.591,197.420 277.048,199.000 278.745 M216.872 279.215 C 215.702 280.307,214.899 281.200,215.087 281.200 C 215.276 281.200,216.317 280.300,217.400 279.200 C 219.923 276.638,219.626 276.647,216.872 279.215 M204.800 282.400 C 205.130 282.613,205.850 282.773,206.400 282.754 L 207.400 282.720 206.400 282.400 C 204.858 281.906,204.036 281.906,204.800 282.400 M210.400 282.400 L 209.400 282.720 210.400 282.754 C 210.950 282.773,211.670 282.613,212.000 282.400 C 212.764 281.906,211.942 281.906,210.400 282.400 " stroke="none" fill="#acacac" fill-rule="evenodd"></path><path id="path4" d="M84.667 117.467 C 84.072 118.061,84.365 216.599,84.963 217.417 C 85.496 218.146,85.688 218.021,88.522 215.094 C 90.169 213.392,91.401 212.002,91.258 212.005 C 91.116 212.007,89.749 213.265,88.220 214.799 C 86.289 216.736,85.344 217.437,85.126 217.094 C 84.716 216.448,84.716 118.752,85.126 118.106 C 85.344 117.763,86.289 118.464,88.220 120.401 C 89.749 121.935,91.119 123.193,91.265 123.195 C 91.410 123.198,90.205 121.850,88.587 120.200 C 85.714 117.270,85.213 116.921,84.667 117.467 M149.240 166.500 C 149.262 193.615,149.397 216.216,149.540 216.724 C 149.683 217.233,149.752 195.138,149.692 167.624 C 149.622 134.793,149.721 117.600,149.981 117.600 C 150.199 117.600,163.837 131.048,180.289 147.484 C 196.740 163.920,209.755 176.835,209.210 176.184 C 206.247 172.640,150.507 117.200,149.906 117.200 C 149.235 117.200,149.202 119.632,149.240 166.500 M93.200 125.064 C 93.200 125.282,93.695 125.897,94.300 126.430 L 95.400 127.400 94.400 126.200 C 93.850 125.540,93.355 124.925,93.300 124.833 C 93.245 124.742,93.200 124.845,93.200 125.064 M95.605 127.519 C 95.613 127.933,105.938 138.199,106.130 137.983 C 106.220 137.883,103.887 135.424,100.947 132.519 C 98.006 129.615,95.602 127.365,95.605 127.519 M108.000 139.956 C 108.000 140.335,109.955 142.199,110.111 141.968 C 110.174 141.876,109.724 141.316,109.112 140.726 C 108.501 140.135,108.000 139.788,108.000 139.956 M112.000 143.864 C 112.000 144.082,112.495 144.697,113.100 145.230 L 114.200 146.200 113.200 145.000 C 112.650 144.340,112.155 143.725,112.100 143.633 C 112.045 143.542,112.000 143.645,112.000 143.864 M114.400 146.285 C 114.400 146.722,122.328 154.611,122.533 154.380 C 122.621 154.281,120.826 152.345,118.546 150.078 C 116.266 147.811,114.400 146.104,114.400 146.285 M124.383 156.500 C 126.041 158.266,126.400 158.584,126.400 158.283 C 126.400 158.219,125.545 157.364,124.500 156.383 L 122.600 154.600 124.383 156.500 M335.000 156.203 C 335.914 156.521,338.329 156.609,338.148 156.316 C 338.041 156.142,337.198 156.014,336.276 156.032 C 335.354 156.049,334.780 156.126,335.000 156.203 M326.000 157.188 C 325.450 157.357,326.440 157.405,328.200 157.293 C 329.960 157.182,331.475 157.025,331.567 156.945 C 331.884 156.668,326.995 156.881,326.000 157.188 M319.200 158.017 C 318.585 158.225,319.354 158.266,321.200 158.125 C 322.850 157.999,324.275 157.829,324.367 157.748 C 324.699 157.453,320.174 157.689,319.200 158.017 M126.800 158.658 C 126.800 158.874,127.385 159.579,128.100 160.225 L 129.400 161.400 128.200 160.002 C 127.540 159.233,126.955 158.528,126.900 158.435 C 126.845 158.343,126.800 158.443,126.800 158.658 M312.400 158.821 C 311.752 159.042,312.245 159.080,313.800 158.931 C 315.120 158.804,316.275 158.632,316.367 158.550 C 316.690 158.259,313.386 158.484,312.400 158.821 M305.800 191.200 C 287.981 209.020,273.501 223.600,273.622 223.600 C 273.783 223.600,337.295 160.221,338.367 158.991 C 338.458 158.886,338.458 158.800,338.366 158.800 C 338.274 158.800,323.619 173.380,305.800 191.200 M305.600 159.607 C 304.979 159.811,305.509 159.851,307.000 159.712 C 308.320 159.589,309.475 159.424,309.567 159.344 C 309.889 159.065,306.588 159.284,305.600 159.607 M298.400 160.402 C 297.800 160.595,298.440 160.637,300.000 160.506 C 301.430 160.386,302.675 160.223,302.767 160.144 C 303.089 159.865,299.388 160.084,298.400 160.402 M291.200 161.216 C 290.573 161.426,291.170 161.466,292.800 161.323 C 294.230 161.197,295.475 161.028,295.567 160.947 C 295.895 160.658,292.180 160.886,291.200 161.216 M284.400 162.021 C 283.752 162.242,284.245 162.280,285.800 162.131 C 287.120 162.004,288.275 161.832,288.367 161.750 C 288.690 161.459,285.386 161.684,284.400 162.021 M277.200 162.800 C 275.801 163.248,278.039 163.248,279.800 162.800 L 281.000 162.495 279.600 162.487 C 278.830 162.483,277.750 162.624,277.200 162.800 M130.244 164.200 C 130.573 165.671,130.802 165.990,130.794 164.967 C 130.791 164.545,130.605 163.930,130.382 163.600 C 130.085 163.162,130.048 163.324,130.244 164.200 M270.400 163.600 C 268.996 164.050,270.463 164.065,272.600 163.623 L 274.200 163.292 272.800 163.286 C 272.030 163.283,270.950 163.424,270.400 163.600 M263.400 164.400 C 261.737 164.823,263.374 164.842,265.400 164.423 C 266.745 164.145,266.809 164.092,265.800 164.093 C 265.140 164.094,264.060 164.232,263.400 164.400 M256.400 165.200 C 255.050 165.484,255.043 165.495,256.200 165.500 C 256.860 165.503,257.940 165.368,258.600 165.200 C 260.260 164.778,258.407 164.778,256.400 165.200 M249.600 166.000 C 248.196 166.450,249.663 166.465,251.800 166.023 L 253.400 165.692 252.000 165.686 C 251.230 165.683,250.150 165.824,249.600 166.000 M130.901 167.400 C 130.905 168.280,130.987 168.593,131.083 168.095 C 131.179 167.598,131.175 166.878,131.075 166.495 C 130.975 166.113,130.896 166.520,130.901 167.400 M242.000 166.800 C 240.351 167.056,240.317 167.083,241.600 167.117 C 242.370 167.137,243.720 167.005,244.600 166.823 C 246.666 166.396,244.712 166.378,242.000 166.800 M234.800 167.600 C 233.151 167.856,233.117 167.883,234.400 167.917 C 235.170 167.937,236.520 167.805,237.400 167.623 C 239.466 167.196,237.512 167.178,234.800 167.600 M228.000 168.400 C 226.351 168.656,226.317 168.683,227.600 168.717 C 228.370 168.737,229.720 168.605,230.600 168.423 C 232.666 167.996,230.712 167.978,228.000 168.400 M222.900 169.076 C 223.285 169.176,223.915 169.176,224.300 169.076 C 224.685 168.975,224.370 168.893,223.600 168.893 C 222.830 168.893,222.515 168.975,222.900 169.076 M219.372 169.645 C 219.215 169.900,220.272 171.226,221.845 172.745 L 224.592 175.400 222.096 172.789 C 219.202 169.762,219.180 169.703,220.900 169.489 L 222.200 169.328 220.924 169.264 C 220.222 169.229,219.523 169.400,219.372 169.645 M129.939 171.613 C 129.575 172.706,129.347 173.600,129.433 173.600 C 129.732 173.600,130.827 170.634,130.714 170.131 C 130.651 169.853,130.302 170.520,129.939 171.613 M126.700 176.331 C 125.435 177.612,124.400 178.768,124.400 178.900 C 124.400 179.172,126.412 177.229,128.127 175.300 C 129.946 173.254,129.219 173.779,126.700 176.331 M210.400 177.454 C 210.400 177.959,222.328 189.806,222.581 189.552 C 222.696 189.437,220.002 186.588,216.595 183.221 C 213.188 179.854,210.400 177.259,210.400 177.454 M233.800 184.800 C 237.535 188.540,240.681 191.600,240.791 191.600 C 240.901 191.600,237.935 188.540,234.200 184.800 C 230.465 181.060,227.319 178.000,227.209 178.000 C 227.099 178.000,230.065 181.060,233.800 184.800 M117.019 185.996 C 114.181 188.855,111.936 191.252,112.030 191.323 C 112.123 191.395,114.608 189.056,117.550 186.127 C 120.493 183.197,122.738 180.800,122.539 180.800 C 122.341 180.800,119.856 183.138,117.019 185.996 M115.932 203.051 C 104.061 214.903,94.193 224.870,94.004 225.200 C 93.815 225.530,103.408 216.035,115.322 204.100 C 127.235 192.165,137.212 182.400,137.492 182.400 C 137.900 182.400,138.000 192.185,138.000 232.200 C 138.000 271.264,137.894 282.000,137.509 282.000 C 137.240 282.000,135.665 280.695,134.009 279.100 L 131.000 276.200 133.990 279.300 C 138.919 284.410,138.400 289.950,138.400 232.224 C 138.400 196.036,138.277 181.971,137.958 181.774 C 137.700 181.615,128.543 190.460,115.932 203.051 M224.400 191.800 C 226.420 193.858,227.141 194.244,225.375 192.321 C 224.729 191.618,223.988 190.808,223.729 190.521 C 223.469 190.235,223.117 190.000,222.945 190.000 C 222.774 190.000,223.428 190.810,224.400 191.800 M107.994 195.096 C 107.007 196.138,106.558 196.723,106.995 196.396 C 108.085 195.579,110.353 193.200,110.041 193.200 C 109.902 193.200,108.981 194.053,107.994 195.096 M226.800 193.912 C 226.800 194.104,227.250 194.683,227.800 195.200 C 228.350 195.717,228.800 196.010,228.800 195.852 C 228.800 195.693,228.350 195.114,227.800 194.564 C 227.250 194.014,226.800 193.720,226.800 193.912 M250.600 201.600 C 254.555 205.560,257.882 208.800,257.992 208.800 C 258.102 208.800,254.955 205.560,251.000 201.600 C 247.045 197.640,243.718 194.400,243.608 194.400 C 243.498 194.400,246.645 197.640,250.600 201.600 M229.205 196.205 C 229.199 196.701,241.101 208.634,241.349 208.381 C 241.446 208.281,238.755 205.410,235.368 202.000 C 231.981 198.590,229.208 195.982,229.205 196.205 M101.429 201.599 C 99.024 204.014,97.134 206.060,97.229 206.145 C 97.323 206.230,99.438 204.252,101.928 201.750 C 104.419 199.247,106.309 197.202,106.128 197.204 C 105.948 197.207,103.833 199.184,101.429 201.599 M94.900 208.129 C 93.965 209.070,93.200 209.943,93.200 210.068 C 93.200 210.330,95.536 208.125,96.349 207.095 C 97.291 205.903,96.671 206.345,94.900 208.129 M243.175 210.495 C 244.151 211.534,245.028 212.306,245.123 212.211 C 245.302 212.031,245.067 211.790,242.779 209.804 C 241.775 208.933,241.883 209.122,243.175 210.495 M266.200 217.200 C 269.715 220.720,272.681 223.600,272.791 223.600 C 272.901 223.600,270.115 220.720,266.600 217.200 C 263.085 213.680,260.119 210.800,260.009 210.800 C 259.899 210.800,262.685 213.680,266.200 217.200 M245.600 212.611 C 245.600 213.134,255.911 223.423,256.172 223.161 C 256.282 223.051,253.948 220.542,250.986 217.586 C 248.024 214.630,245.600 212.391,245.600 212.611 M150.244 220.600 C 150.573 222.071,150.802 222.390,150.794 221.367 C 150.791 220.945,150.605 220.330,150.382 220.000 C 150.085 219.562,150.048 219.724,150.244 220.600 M151.044 223.400 C 151.373 224.871,151.602 225.190,151.594 224.167 C 151.591 223.745,151.405 223.130,151.182 222.800 C 150.885 222.362,150.848 222.524,151.044 223.400 M257.412 225.056 C 257.955 225.857,258.400 226.697,258.400 226.922 C 258.400 227.148,258.508 227.225,258.640 227.093 C 258.930 226.803,257.186 223.600,256.738 223.600 C 256.566 223.600,256.869 224.255,257.412 225.056 M152.000 226.284 C 152.000 226.851,153.163 229.600,153.402 229.600 C 153.507 229.600,153.296 228.835,152.932 227.900 C 152.195 226.007,152.000 225.669,152.000 226.284 M259.040 228.666 C 259.408 230.199,259.600 230.344,259.600 229.090 C 259.600 228.517,259.413 227.932,259.184 227.790 C 258.911 227.621,258.862 227.923,259.040 228.666 M155.215 233.400 C 155.217 233.620,155.586 234.250,156.036 234.800 C 156.579 235.464,156.715 235.531,156.440 235.000 C 155.766 233.695,155.212 232.972,155.215 233.400 M259.246 234.867 C 259.221 235.234,259.096 235.864,258.970 236.267 C 258.752 236.962,258.763 236.963,259.197 236.287 C 259.448 235.896,259.573 235.266,259.473 234.887 C 259.311 234.268,259.288 234.266,259.246 234.867 M257.045 239.788 C 256.680 240.344,256.522 240.800,256.695 240.800 C 257.084 240.800,258.119 239.186,257.882 238.949 C 257.786 238.853,257.410 239.231,257.045 239.788 M103.000 248.400 C 106.074 251.480,108.679 254.000,108.789 254.000 C 108.899 254.000,106.474 251.480,103.400 248.400 C 100.326 245.320,97.721 242.800,97.611 242.800 C 97.501 242.800,99.926 245.320,103.000 248.400 M234.023 262.979 C 215.327 281.630,214.757 282.113,210.600 282.826 L 209.000 283.100 210.400 283.147 C 213.910 283.265,215.656 281.802,234.570 262.900 C 244.311 253.165,252.184 245.200,252.064 245.200 C 251.944 245.200,243.826 253.201,234.023 262.979 M168.989 249.510 C 170.523 251.100,171.860 252.400,171.959 252.400 C 172.301 252.400,169.272 249.247,167.358 247.610 C 166.721 247.066,167.455 247.921,168.989 249.510 M119.800 265.200 C 123.094 268.500,125.880 271.200,125.990 271.200 C 126.100 271.200,123.494 268.500,120.200 265.200 C 116.906 261.900,114.120 259.200,114.010 259.200 C 113.900 259.200,116.506 261.900,119.800 265.200 M185.389 265.910 C 186.923 267.500,188.250 268.800,188.338 268.800 C 188.716 268.800,185.936 265.901,183.747 264.010 C 183.116 263.466,183.855 264.321,185.389 265.910 M200.669 280.959 C 202.236 282.118,205.238 283.201,206.733 283.147 C 208.165 283.094,208.157 283.087,206.400 282.826 C 205.410 282.679,203.700 282.127,202.600 281.599 C 199.853 280.283,199.673 280.223,200.669 280.959 " stroke="none" fill="#848484" fill-rule="evenodd"></path></g></svg>